<svg width="478" height="185" viewBox="0 0 478 185" fill="none" xmlns="http://www.w3.org/2000/svg">
<path fill-rule="evenodd" clip-rule="evenodd" d="M529.113 103.801C524.903 103.801 520.717 103.869 516.563 104.004C508.269 104.336 501.973 104.733 496.11 105.295C489.988 105.825 483.342 106.615 475.791 107.71C472.724 108.155 470.597 111.002 471.042 114.069C471.487 117.137 474.332 119.266 477.402 118.818C484.747 117.753 491.192 116.987 497.104 116.476L497.156 116.471C502.812 115.929 508.922 115.544 516.97 115.221C529.946 114.799 543.306 115.061 556.634 115.999C569.302 116.881 582.205 118.408 596.088 120.67C608.721 122.734 621.834 125.395 635.062 128.578C638.078 129.303 641.107 127.448 641.832 124.434C642.557 121.42 640.702 118.389 637.688 117.664C624.192 114.417 610.804 111.7 597.896 109.591C583.667 107.273 570.428 105.707 557.418 104.802C547.961 104.136 538.482 103.801 529.113 103.801Z" fill="#9063CD"/>
<path fill-rule="evenodd" clip-rule="evenodd" d="M8.1885 22.9246C6.95166 22.9246 5.69725 23.2173 4.52708 23.8345C0.689315 25.8603 -0.779616 30.6134 1.24622 34.4515C7.70673 46.6917 15.4392 59.0191 24.2286 71.0914C32.8292 82.8777 42.2081 94.0056 52.1098 104.172C62.3711 114.713 73.3135 124.337 84.6323 132.776C96.4259 141.567 108.835 149.245 121.515 155.598C125.396 157.542 130.116 155.973 132.06 152.093C134.004 148.213 132.435 143.491 128.554 141.548C116.697 135.607 105.08 128.417 94.0249 120.176C83.3691 112.232 73.0551 103.159 63.3692 93.209C53.9829 83.5716 45.0872 73.0161 36.9284 61.8346C28.5857 50.3761 21.2547 38.6926 15.1441 27.1156C13.7358 24.4477 11.0091 22.9246 8.1885 22.9246Z" fill="#FDDA24"/>
<path fill-rule="evenodd" clip-rule="evenodd" d="M35.3155 79.1661C34.0692 79.1661 32.8154 79.5794 31.7737 80.4275C29.3707 82.3854 29.0098 85.9205 30.9671 88.3239C34.0159 92.0659 37.1519 95.6507 39.5435 98.3555L39.5859 98.4034C42.8683 102.032 45.6592 105.062 48.6125 108.058C54.6846 114.303 61.1942 120.392 67.9343 126.127C81.5823 137.777 96.28 147.927 111.613 156.29C127.344 164.879 143.931 171.65 160.912 176.413C177.705 181.139 195.371 184.029 213.415 185.001C216.513 185.166 219.155 182.794 219.322 179.699C219.489 176.604 217.115 173.959 214.02 173.792C196.798 172.864 179.952 170.11 163.948 165.607C147.777 161.071 131.98 154.621 116.99 146.437C102.335 138.444 88.2809 128.736 75.2154 117.584C68.7367 112.071 62.4874 106.226 56.6338 100.205C53.7998 97.3305 51.1077 94.4072 47.9317 90.8966C45.6128 88.2733 42.5829 84.8094 39.6704 81.234C38.5609 79.8724 36.945 79.1661 35.3155 79.1661Z" fill="#9063CD"/>
<path fill-rule="evenodd" clip-rule="evenodd" d="M531.21 109.01H531.184L529.352 109.015C526.332 109.021 523.21 109.027 520.078 109.133C517.095 109.18 514.132 109.322 511.265 109.46C510.506 109.496 509.747 109.533 508.987 109.567L508.865 109.574C500.335 110.097 493.265 110.717 486.616 111.526C478.707 112.492 471.484 113.577 464.529 114.843C457.314 116.167 449.972 117.715 442.697 119.447C429.474 122.625 415.476 126.635 399.886 131.711C390.029 134.912 380.065 138.345 370.428 141.665C366.284 143.092 362.136 144.522 357.978 145.939C353.871 147.339 351.676 151.805 353.077 155.912C354.477 160.02 358.942 162.214 363.05 160.813C367.223 159.391 371.387 157.956 375.547 156.523C385.118 153.225 395.015 149.816 404.745 146.655C419.944 141.707 433.552 137.807 446.353 134.731C453.346 133.066 460.418 131.575 467.355 130.302C473.994 129.093 480.92 128.054 488.517 127.126C494.828 126.358 501.583 125.766 509.765 125.263C510.516 125.229 511.267 125.193 512.018 125.157C514.91 125.018 517.642 124.887 520.394 124.845L520.542 124.841C523.445 124.742 526.33 124.736 529.383 124.73L531.235 124.725C535.575 124.711 539.081 121.181 539.067 116.842C539.052 112.511 535.537 109.01 531.21 109.01Z" fill="#FF7F41"/>
<path fill-rule="evenodd" clip-rule="evenodd" d="M167.51 157.924C164.539 157.924 161.82 159.905 161.011 162.91C160.044 166.502 162.172 170.198 165.763 171.165C200.941 180.634 240.59 181.561 283.606 173.921C287.269 173.27 289.71 169.774 289.06 166.112C288.409 162.45 284.912 160.009 281.25 160.658C240.196 167.95 202.518 167.109 169.264 158.158C168.678 158 168.089 157.924 167.51 157.924Z" fill="#F5B6CD"/>
<path fill-rule="evenodd" clip-rule="evenodd" d="M422.153 117.427C421.436 117.427 420.708 117.525 419.984 117.733C403.411 122.482 387.054 128.042 370.359 133.797L368.515 134.432C353.255 139.692 337.475 145.131 321.891 149.702C317.727 150.924 315.341 155.29 316.563 159.454C317.785 163.619 322.152 166.003 326.315 164.782C342.249 160.108 358.206 154.608 373.636 149.289L375.48 148.654C391.968 142.97 408.109 137.483 424.313 132.84C428.485 131.644 430.898 127.293 429.702 123.122C428.714 119.674 425.569 117.427 422.153 117.427Z" fill="#00C389"/>
<path fill-rule="evenodd" clip-rule="evenodd" d="M507.699 63.099C507.393 63.099 507.085 63.1093 506.774 63.1305C489.555 64.2982 471.73 66.7892 453.795 70.5342C437.749 73.8741 420.907 78.3615 402.317 84.2512C395.224 86.4979 391.297 94.0683 393.544 101.161C395.791 108.252 403.362 112.18 410.453 109.933C428.165 104.322 444.14 100.061 459.293 96.9077C476.026 93.4132 492.611 91.0929 508.597 90.0091C516.019 89.5058 521.628 83.0804 521.125 75.6582C520.643 68.5462 514.723 63.099 507.699 63.099Z" fill="#F5B6CD"/>
<path fill-rule="evenodd" clip-rule="evenodd" d="M534.034 45.0314C525.801 45.0311 517.324 45.2814 508.83 45.7753L508.753 45.7798C500.439 46.3043 491.879 47.1115 483.312 48.1792L483.188 48.1953L476.794 49.0464L470.765 49.9651C469.257 50.1866 467.836 50.4345 466.461 50.6741C465.791 50.7905 465.122 50.9074 464.451 51.0186L464.313 51.0426C463.983 51.1004 463.653 51.1562 463.323 51.2122C462.579 51.3383 461.835 51.4656 461.095 51.6046L458.049 52.1837C449.522 53.8044 443.924 62.0308 445.545 70.5574C447.166 79.0838 455.39 84.6829 463.918 83.0612L466.935 82.4879C467.463 82.3886 468.023 82.2943 468.583 82.1995C468.945 82.1377 469.308 82.0762 469.67 82.0131C470.399 81.8913 471.129 81.7644 471.857 81.6374C473.094 81.422 474.261 81.2184 475.364 81.0572L481.379 80.1412L487.258 79.3607C495.161 78.3772 503.045 77.6336 510.693 77.1503C518.653 76.6883 526.576 76.4592 534.282 76.4616C535.551 76.468 536.819 76.4886 538.087 76.5089C538.805 76.5204 539.522 76.5316 540.24 76.541L543.127 76.5886L546.017 76.6943C546.751 76.7237 547.485 76.7495 548.219 76.7752C549.5 76.8201 550.711 76.8625 551.889 76.9234L558.118 77.2873C559.37 77.3488 560.706 77.4576 562.121 77.5733C562.658 77.617 563.194 77.6609 563.732 77.7027C564.472 77.766 565.213 77.8239 565.953 77.8815C567.197 77.9778 568.372 78.0693 569.466 78.1857C570.412 78.2835 571.319 78.3754 572.226 78.4675C575.366 78.785 578.331 79.0853 581.248 79.4743L581.496 79.5052C589.341 80.4248 597.367 81.7301 604.876 83.0052C619.867 85.6888 635.419 89.2293 651.104 93.5289C659.473 95.8238 668.12 90.8979 670.415 82.5279C672.709 74.1573 667.784 65.5116 659.413 63.217C642.792 58.6605 626.28 54.9043 610.336 52.0531L610.201 52.0294C602.298 50.6868 593.81 49.3064 585.276 48.3029C581.91 47.8569 578.597 47.5211 575.392 47.1966C574.511 47.1075 573.63 47.0185 572.749 46.927C571.25 46.7676 569.795 46.6546 568.386 46.5455C567.71 46.4928 567.034 46.4407 566.359 46.3822L566.224 46.3713C565.709 46.3316 565.194 46.2895 564.679 46.2473C563.098 46.118 561.465 45.9849 559.73 45.8983L553.576 45.5383C552.113 45.462 550.693 45.4123 549.319 45.3641C548.628 45.3399 547.936 45.3156 547.245 45.288L547.189 45.2859L543.804 45.1653L540.674 45.1135C539.979 45.1047 539.284 45.0935 538.589 45.0826C537.194 45.0602 535.799 45.0384 534.403 45.0317L534.338 45.0314H534.034Z" fill="#00C389"/>
<path fill-rule="evenodd" clip-rule="evenodd" d="M322.808 93.9955C321.223 93.9955 319.611 94.237 318.02 94.7454C292.758 102.819 272.12 107.558 253.072 109.66L252.883 109.682C252.187 109.767 251.4 109.841 250.567 109.919C250.016 109.971 249.465 110.023 248.915 110.079C247.587 110.21 246.35 110.332 245.223 110.401L245.057 110.412L240.943 110.706L234.909 110.977L232.988 111.009C232.45 111.017 231.91 111.027 231.372 111.038C230.595 111.052 229.819 111.068 229.043 111.07C228.361 111.059 227.679 111.052 226.998 111.044C224.953 111.02 223.021 110.999 221.215 110.897L220.79 110.879C218.899 110.823 216.898 110.675 214.781 110.518C214.193 110.474 213.606 110.431 213.018 110.389C212.234 110.317 211.451 110.235 210.667 110.153C210.151 110.099 209.634 110.044 209.117 109.993C208.835 109.962 208.552 109.933 208.269 109.906C207.988 109.878 207.707 109.853 207.428 109.816L202.349 109.137L197.505 108.343C197.011 108.248 196.518 108.154 196.024 108.059C193.886 107.65 191.867 107.264 189.98 106.814C181.54 104.8 173.062 110.013 171.049 118.456C169.036 126.899 174.249 135.375 182.692 137.387C185.266 138.001 187.733 138.473 190.119 138.93C190.66 139.033 191.202 139.137 191.743 139.242L192.198 139.323L197.942 140.258L203.264 140.969C203.986 141.066 204.641 141.13 205.168 141.183C205.368 141.203 205.567 141.222 205.767 141.244L205.918 141.26C206.41 141.309 206.901 141.36 207.392 141.412C208.377 141.515 209.361 141.617 210.347 141.706L210.646 141.73C211.25 141.773 211.854 141.818 212.458 141.862C214.761 142.033 217.141 142.209 219.654 142.288C222.09 142.42 224.403 142.447 226.642 142.472C227.319 142.48 227.997 142.487 228.674 142.498L228.929 142.5C229.945 142.5 230.961 142.481 231.977 142.462C232.464 142.452 232.951 142.443 233.437 142.437L236.067 142.387L242.98 142.071L247.216 141.768C248.914 141.663 250.492 141.507 252.018 141.355L252.092 141.348C252.56 141.3 253.028 141.256 253.495 141.213C254.437 141.124 255.5 141.025 256.608 140.891C277.763 138.549 300.321 133.398 327.588 124.684C335.856 122.042 340.415 113.198 337.774 104.931C335.64 98.2544 329.461 93.9955 322.808 93.9955Z" fill="#59CBE8"/>
<path fill-rule="evenodd" clip-rule="evenodd" d="M372.157 97.3859C370.928 97.3859 369.678 97.5892 368.453 98.0173C365.939 98.8957 363.423 99.7786 360.905 100.662C346.94 105.562 332.499 110.628 318.077 115.073C299.088 120.928 282.313 124.96 266.792 127.401C260.668 128.364 256.484 134.109 257.446 140.233C258.41 146.358 264.153 150.543 270.279 149.579C286.871 146.97 304.669 142.7 324.691 136.526C339.524 131.955 354.172 126.816 368.337 121.847C370.847 120.966 373.354 120.086 375.86 119.21C381.712 117.165 384.798 110.763 382.753 104.911C381.136 100.284 376.796 97.3859 372.157 97.3859Z" fill="#FDDA24"/>
<path fill-rule="evenodd" clip-rule="evenodd" d="M77.3136 60.7599C73.3007 60.7599 69.2878 62.287 66.2205 65.3436C60.073 71.4699 60.0558 81.4201 66.1824 87.5682C76.071 97.4913 86.5959 106.522 97.4641 114.408C108.845 122.67 120.874 129.871 133.216 135.81C139.785 138.963 146.297 141.723 152.582 144.018C159.092 146.404 165.833 148.515 172.601 150.288L175.021 150.907C175.965 151.152 176.9 151.39 177.938 151.614L183.071 152.762L187.785 153.679C188.871 153.9 189.889 154.069 190.749 154.206L195.986 155.051L198.517 155.389C198.977 155.447 199.437 155.51 199.896 155.573C201.064 155.732 202.384 155.913 203.807 156.043L209.022 156.572L213.878 156.926C222.533 157.553 230.063 151.053 230.695 142.396C231.326 133.74 224.821 126.211 216.165 125.579L211.54 125.242L206.721 124.748C205.981 124.682 205.091 124.56 204.148 124.431C203.605 124.358 203.062 124.284 202.518 124.214L200.361 123.926L195.731 123.173C195.181 123.086 194.548 122.982 194.016 122.872L193.861 122.841L189.299 121.954L184.603 120.898C184.128 120.797 183.545 120.647 182.886 120.476L180.516 119.87C174.724 118.352 168.958 116.545 163.379 114.501C158.033 112.549 152.471 110.189 146.831 107.481C136.193 102.363 125.791 96.133 115.926 88.9717C106.404 82.0615 97.1587 74.1254 88.4454 65.3818C85.3751 62.3012 81.3443 60.7602 77.3136 60.7599Z" fill="#FF7F41"/>
<path fill-rule="evenodd" clip-rule="evenodd" d="M46.8958 0.632248C45.0527 0.632248 43.1844 1.08674 41.4588 2.04421C36.0382 5.05267 34.0827 11.8859 37.0908 17.3065C41.1274 24.5793 45.8538 32.0655 51.1396 39.5574C56.2545 46.793 61.7006 53.7613 67.3324 60.277C79.1032 73.9125 91.9837 86.0323 105.61 96.2952C110.563 100.024 117.601 99.034 121.33 94.0818C125.06 89.1293 124.069 82.0916 119.116 78.362C106.763 69.0581 95.056 58.0357 84.3218 45.6013C79.1602 39.6298 74.1677 33.2405 69.4776 26.6064C64.6615 19.7799 60.3674 12.9824 56.7208 6.41252C54.6701 2.71716 50.8421 0.632248 46.8958 0.632248Z" fill="#9063CD"/>
</svg>
